<?xml version="1.0" standalone="no"?>
<!DOCTYPE svg PUBLIC "-//W3C//DTD SVG 20010904//EN"
 "http://www.w3.org/TR/2001/REC-SVG-20010904/DTD/svg10.dtd">
<svg version="1.0" xmlns="http://www.w3.org/2000/svg"
 width="1000.000000pt" height="1000.000000pt" viewBox="0 0 1000.000000 1000.000000"
 preserveAspectRatio="xMidYMid meet">
<metadata>
Created by potrace 1.11, written by Peter Selinger 2001-2013
</metadata>
<g transform="translate(0.000000,1000.000000) scale(0.100000,-0.100000)"
fill="#000000" stroke="none">
<path d="M892 8981 c-8 -4 1 -51 29 -151 61 -219 76 -273 113 -415 19 -71 44
-164 55 -205 47 -178 222 -884 310 -1255 17 -71 46 -195 65 -275 19 -80 47
-194 61 -255 14 -60 44 -184 66 -273 22 -90 42 -172 45 -183 9 -42 13 -57 29
-119 9 -36 18 -72 20 -80 2 -8 9 -35 16 -60 7 -25 13 -49 14 -55 11 -50 114
-413 150 -527 25 -78 47 -150 50 -158 5 -21 78 -230 113 -325 113 -311 305
-696 474 -949 60 -91 206 -287 250 -337 13 -15 43 -51 68 -80 25 -29 101 -110
170 -179 482 -486 1046 -848 1622 -1040 170 -57 423 -122 525 -134 18 -3 40
-7 50 -10 10 -3 43 -8 73 -11 30 -3 66 -8 80 -10 35 -5 155 -16 215 -21 71 -5
515 -5 545 0 14 2 67 7 118 11 51 3 101 8 110 9 9 2 49 7 87 11 39 4 77 9 86
10 9 2 40 7 70 10 30 4 63 9 74 11 70 10 103 15 125 20 14 3 36 7 50 9 22 3
164 27 225 39 48 8 93 16 130 21 62 10 97 15 134 22 33 6 38 2 330 -295 163
-165 455 -461 649 -656 l353 -356 238 2 239 3 -743 750 -743 749 4 69 c2 38 6
86 9 106 2 20 7 52 10 71 3 19 21 141 40 270 19 129 37 249 39 265 13 94 17
123 21 155 5 34 21 172 30 240 7 56 19 195 32 355 4 55 8 253 8 440 0 299 -4
430 -20 580 -2 22 -6 66 -9 98 -3 32 -13 102 -21 155 -9 53 -18 113 -21 132
-15 98 -87 409 -114 495 -175 541 -355 894 -651 1272 -125 160 -375 425 -492
521 -29 23 -68 56 -87 73 -19 17 -93 74 -165 128 -357 269 -754 486 -1225 671
-102 40 -194 76 -205 81 -59 24 -508 164 -595 184 -8 2 -71 18 -140 35 -69 18
-132 33 -140 35 -46 12 -451 94 -485 99 -22 3 -51 8 -65 11 -60 13 -82 16
-210 36 -172 26 -175 26 -235 34 -92 12 -100 13 -165 20 -36 4 -72 8 -80 10
-8 1 -49 6 -90 10 -41 4 -83 9 -93 11 -10 1 -57 6 -105 9 -48 3 -98 8 -112 10
-14 2 -65 6 -115 10 -49 3 -119 8 -155 10 -62 5 -196 12 -360 20 -41 2 -226 7
-410 10 -184 4 -340 8 -346 10 -6 2 -16 0 -22 -4z m1106 -705 c27 -6 176 -63
200 -76 10 -5 69 -33 132 -62 387 -178 779 -428 1095 -696 111 -95 406 -387
475 -472 25 -30 52 -61 60 -70 8 -8 43 -51 77 -95 35 -44 67 -85 71 -90 155
-189 469 -698 692 -1120 29 -55 67 -127 85 -160 18 -33 56 -105 85 -160 90
-170 133 -250 140 -260 4 -5 25 -44 47 -85 298 -556 798 -1319 1098 -1680 255
-305 330 -369 847 -722 62 -43 127 -90 143 -104 l30 -27 -33 7 c-39 7 -292
104 -306 117 -6 5 -16 9 -23 9 -7 0 -36 11 -65 24 -29 14 -117 52 -195 85
-163 70 -319 145 -380 184 -24 15 -47 27 -53 27 -5 0 -10 5 -10 10 0 6 -5 10
-10 10 -28 0 -307 204 -465 341 -184 159 -474 461 -612 636 -15 20 -55 70 -89
112 -232 290 -596 839 -796 1201 -14 25 -56 101 -95 170 -38 69 -91 166 -118
215 -26 50 -62 117 -80 150 -18 33 -64 121 -103 195 -145 279 -202 385 -277
520 -24 41 -53 93 -65 115 -103 184 -287 469 -395 609 -33 43 -69 90 -80 105
-89 119 -313 354 -455 479 -47 41 -164 133 -260 205 -96 72 -177 133 -180 136
-3 3 -25 22 -50 42 -65 52 -134 120 -153 150 -26 40 -12 45 71 25z"/>
</g>
</svg>
